<?xml version="1.0" standalone="no"?><!DOCTYPE svg PUBLIC "-//W3C//DTD SVG 1.1//EN" "http://www.w3.org/Graphics/SVG/1.1/DTD/svg11.dtd"><svg t="1484118894143" class="icon" style="" viewBox="0 0 1024 1024" version="1.1" xmlns="http://www.w3.org/2000/svg" p-id="1012" xmlns:xlink="http://www.w3.org/1999/xlink" width="32" height="32"><defs><style type="text/css"></style></defs><path d="M1022.280334 616.759949l-0.00614 0L1022.274194 379.923916c-96.062869 0-173.942611-77.874625-173.942611-173.942611 0-31.438013 8.338922-60.925604 22.932292-86.374206L662.160463 0c-29.995151 52.316529-86.391602 87.569428-151.017482 87.569428-64.62281 0-121.020284-35.252899-151.007249-87.569428L151.031297 119.607098c14.588253 25.443485 22.937408 54.937217 22.932292 86.374206 0 96.067986-77.875648 173.942611-173.942611 173.942611L0.020978 616.759949c96.067986 0 173.942611 77.879742 173.942611 173.943634 0 31.438013-8.337899 60.925604-22.932292 86.379323L360.135732 996.685911c29.986965-52.316529 86.390579-87.563288 151.007249-87.563288 64.632019 0 121.027447 35.246759 151.017482 87.563288l0.573051-0.326435c0 0 31.828916 1.808182 44.546565-45.530986 9.209756-34.280758-32.234145-90.562599-32.234145-90.562599-36.730553-37.369096-110.311385-62.739926-163.902954-62.739926-53.653991 0-104.474446 15.85306-141.212162 53.299927l-96.18362-52.384068c4.539386-16.781198 0.734734-34.180474 0.734734-51.707662 0-91.749634-62.862723-175.244256-147.781788-197.3753L126.700145 447.331141c84.919065-22.131043 147.781788-105.620549 147.781788-197.379393 0-17.532305 3.804652-34.926464-0.734734-51.703569l96.18362-52.388161c36.736693 37.451984 87.558172 53.29481 141.212162 53.29481 53.657061 0 104.47854-15.842827 141.218302-53.29481l96.179526 52.388161c-4.54041 16.777105-0.733711 34.175357-0.733711 51.703569 0 91.758844 62.862723 175.243233 147.781788 197.379393l0 102.026698c-84.919065 22.131043-145.887648 105.634876-147.776671 197.3753-2.158153 104.833627 4.321422 126.166491 48.666396 160.432922 30.016641 23.195282 74.791403-30.082132 74.791403-30.082132-14.594393-25.453718-22.938432-54.94131-22.938432-86.379323C848.331583 694.634574 926.211325 616.759949 1022.280334 616.759949z" p-id="1013" fill="#d81e06"></path></svg>