<?xml version="1.0" standalone="no"?><!DOCTYPE svg PUBLIC "-//W3C//DTD SVG 1.1//EN" "http://www.w3.org/Graphics/SVG/1.1/DTD/svg11.dtd"><svg t="1540218144065" class="icon" style="" viewBox="0 0 1024 1024" version="1.1" xmlns="http://www.w3.org/2000/svg" p-id="2015" xmlns:xlink="http://www.w3.org/1999/xlink" width="200" height="200"><defs><style type="text/css"></style></defs><path d="M978.2 316.2c-25.5-60.3-62-114.4-108.5-160.9s-100.6-83-160.9-108.5C646.4 20.4 580.1 7 511.8 7s-134.6 13.4-197 39.8c-11.4 4.8-22.6 10.1-33.6 15.7-46.9 24-89.6 55.1-127.3 92.8-46.5 46.5-83 100.6-108.5 160.9C19 378.6 5.6 444.9 5.6 513.2S19 647.8 45.4 710.3c25.5 60.3 62 114.4 108.5 160.9s100.6 83 160.9 108.5c62.4 26.4 128.7 39.8 197 39.8s134.6-13.4 197.1-39.8c60.3-25.5 114.4-62 160.9-108.5s83-100.6 108.5-160.9c26.4-62.4 39.8-128.7 39.8-197.1-0.1-68.3-13.5-134.6-39.9-197zM708.8 949.9c-62.4 26.4-128.7 39.8-197.1 39.8-68.3 0-134.6-13.4-197-39.8-54.1-22.9-103.3-54.7-146.4-94.5 25.6-60.6 133.2-118.7 226.7-152.5 7.8-2.8 44.6-22.9 24-77.1-53-54.1-93-141.7-93-227.9 0-132 87.3-201.3 189.5-201.3 102 0 189.9 69.2 189.9 201.3 0 85.9-40.2 173.2-92.8 227.4h0.2c-20.2 61.4 12.1 76 17.2 77.6 95.8 31.7 201.7 87.3 230.5 147.5-44.3 42.3-95.3 75.7-151.7 99.5z" p-id="2016" fill="#8a8a8a"></path></svg>